<?xml version="1.0" encoding="UTF-8" standalone="no"?>
<svg
   height="800"
   width="1200"
   viewBox="-120 -47.7005 1040 286.203"
   version="1.1"
   id="svg4"
   sodipodi:docname="AMD-White.svg"
   inkscape:version="1.1 (c4e8f9ed74, 2021-05-24)"
   inkscape:export-filename="/opt/xdc/Logos/Gold/AMD-White.png"
   inkscape:export-xdpi="153.60001"
   inkscape:export-ydpi="153.60001"
   xmlns:inkscape="http://www.inkscape.org/namespaces/inkscape"
   xmlns:sodipodi="http://sodipodi.sourceforge.net/DTD/sodipodi-0.dtd"
   xmlns="http://www.w3.org/2000/svg"
   xmlns:svg="http://www.w3.org/2000/svg">
  <defs
     id="defs8" />
  <sodipodi:namedview
     id="namedview6"
     pagecolor="#ffffff"
     bordercolor="#666666"
     borderopacity="1.0"
     inkscape:pageshadow="2"
     inkscape:pageopacity="0.0"
     inkscape:pagecheckerboard="0"
     showgrid="false"
     inkscape:zoom="0.93875"
     inkscape:cx="599.73369"
     inkscape:cy="570.43941"
     inkscape:window-width="2560"
     inkscape:window-height="1400"
     inkscape:window-x="0"
     inkscape:window-y="0"
     inkscape:window-maximized="1"
     inkscape:current-layer="svg4" />
  <path
     d="M187.888 178.122H143.52l-13.573-32.738H56.003l-12.366 32.738H0L66.667 12.776h47.761zM91.155 52.286L66.912 116.53h50.913zm257.901-39.51h35.88v165.346h-41.219V74.842l-44.608 51.877h-6.301l-44.605-51.877V178.12h-41.219V12.776h35.88l53.092 61.336zm140.319 0c60.364 0 91.391 37.573 91.391 82.909 0 47.517-30.058 82.437-96 82.437h-68.369V12.776zm-31.762 135.041h26.906c41.457 0 53.823-28.129 53.823-52.377 0-28.368-15.276-52.363-54.308-52.363h-26.422v104.74zM800 0v189.21l-51.972-51.975V51.981h-85.259L610.797 0zM609.2 190.802h74.889l53.505-53.506h-74.886V62.397L609.2 115.903z"
     id="path2"
     style="fill:#ffffff;stroke:#ffffff"
     inkscape:export-filename="/opt/xdc/Logos/Gold/AMD-White.png"
     inkscape:export-xdpi="153.60001"
     inkscape:export-ydpi="153.60001" />
</svg>
