<?xml version="1.0" encoding="UTF-8" standalone="no"?>
<svg
   height="800"
   width="1200"
   viewBox="-29.99775 -38.70675 259.9805 232.2405"
   style="background-color: #222"
   version="1.1"
   id="svg8"
   sodipodi:docname="Nvidia-Wide.svg"
   inkscape:version="1.1 (c4e8f9ed74, 2021-05-24)"
   xmlns:inkscape="http://www.inkscape.org/namespaces/inkscape"
   xmlns:sodipodi="http://sodipodi.sourceforge.net/DTD/sodipodi-0.dtd"
   xmlns="http://www.w3.org/2000/svg"
   xmlns:svg="http://www.w3.org/2000/svg">
  <defs
     id="defs12" />
  <sodipodi:namedview
     id="namedview10"
     pagecolor="#ffffff"
     bordercolor="#666666"
     borderopacity="1.0"
     inkscape:pageshadow="2"
     inkscape:pageopacity="0.0"
     inkscape:pagecheckerboard="0"
     showgrid="false"
     inkscape:zoom="0.93875"
     inkscape:cx="717.97603"
     inkscape:cy="409.58722"
     inkscape:window-width="2560"
     inkscape:window-height="1400"
     inkscape:window-x="0"
     inkscape:window-y="0"
     inkscape:window-maximized="1"
     inkscape:current-layer="svg8" />
  <path
     fill="#ffffff"
     d="m 141.04258,58.816651 0.003,39.136252 h 11.05098 V 58.817698 h -11.05484 z m -86.947855,-0.05228 v 39.18853 H 65.245744 V 68.195594 l 8.63875,0.0032 c 2.861453,0 4.899084,0.711967 6.278065,2.182948 1.749083,1.863034 2.462091,4.866679 2.462091,10.362732 V 97.95294 H 93.428571 V 76.301149 c 0,-15.453143 -9.850447,-17.537816 -19.487628,-17.537816 H 54.094725 Z m 104.743895,0.05332 v 39.135202 h 17.92777 c 9.55146,0 12.66801,-1.589121 16.03966,-5.150002 2.38367,-2.500772 3.92366,-7.989508 3.92366,-13.987388 0,-5.500237 -1.3037,-10.408735 -3.57761,-13.464653 -4.09512,-5.46469 -9.99472,-6.533164 -18.80076,-6.533164 z m 10.96387,8.520609 h 4.75274 c 6.89384,0 11.35382,3.096692 11.35382,11.130109 0,8.035509 -4.45998,11.131154 -11.35382,11.131154 h -4.75274 V 67.33935 Z m -44.69608,-8.520609 -9.22421,31.017106 -8.83946,-31.015015 -11.93095,-0.0021 12.62304,39.135206 h 15.93093 l 12.72236,-39.13521 h -11.28065 z m 76.76597,39.135206 h 11.05485 V 58.82083 l -11.05692,-0.0032 z m 30.98471,-39.121614 -15.43433,39.108023 h 10.89906 l 2.44223,-6.912669 h 18.26442 l 2.31049,6.912669 h 11.83477 l -15.55247,-39.111158 -14.76417,0.0043 z m 7.17508,7.135355 6.69522,18.320877 h -13.60161 z"
     id="path2"
     style="fill-rule:evenodd;stroke-width:1.04547" />
  <path
     fill="#76b900"
     d="m -23.502539,63.986099 v -6.132616 a 46.185904,46.185904 0 0 1 1.809165,-0.09274 C -4.9205698,57.23361 6.0837705,72.172698 6.0837705,72.172698 c 0,0 -11.8847149,16.506851 -24.6279815,16.506851 -1.835762,0 -3.477854,-0.295276 -4.958328,-0.792405 V 69.29085 c 6.5295,0.788314 7.842219,3.672887 11.768785,10.216708 L -3.0029765,72.1461 c 0,0 -6.3726559,-8.359125 -17.1164975,-8.359125 -1.169514,0 -2.286519,0.08183 -3.383065,0.199124 z m 0,-20.25816 v 9.160395 c 0.601464,-0.04774 1.204292,-0.08592 1.809165,-0.107745 23.3254905,-0.785586 38.521668,19.129562 38.521668,19.129562 0,0 -17.45541856,21.224458 -35.63914,21.224458 -1.665961,0 -3.225539,-0.153434 -4.691693,-0.413251 v 5.662083 c 1.25339,0.159572 2.55179,0.253679 3.907471,0.253679 16.9221471,0 29.1594195,-8.641445 41.010038,-18.869746 1.963283,1.573217 10.007355,5.400221 11.661039,7.077092 -11.267564,9.432486 -37.5253635,17.034674 -52.411261,17.034674 a 43.25496,43.25496 0 0 1 -4.167287,-0.21686 v 7.95815 H 40.814576 V 43.727258 h -64.316434 z m 0,44.159202 v 4.834899 c -15.651708,-2.791148 -19.995617,-19.060005 -19.995617,-19.060005 0,0 7.514893,-8.326392 19.995617,-9.675936 v 5.304751 c -0.0095,0 -0.01637,-0.0028 -0.02455,-0.0028 -6.549277,-0.786951 -11.666497,5.332709 -11.666497,5.332709 0,0 2.866843,10.301268 11.691046,13.26631 z M -51.300824,72.956236 c 0,0 9.275642,-13.688426 27.798285,-15.103435 v -4.964467 c -20.515249,1.646185 -38.280947,19.021135 -38.280947,19.021135 0,0 10.061228,29.089861 38.281628,31.752811 V 98.384123 C -44.210775,95.777778 -51.300824,72.956236 -51.300824,72.956236 Z"
     id="path4"
     style="fill-rule:evenodd;stroke-width:0.681932" />
</svg>
